<svg xmlns="http://www.w3.org/2000/svg" viewBox="0 0 64 64" width="64" height="64">
  <!-- Sand mound -->
  <ellipse cx="32" cy="48" rx="24" ry="8" fill="#F4D35E"/>
  <!-- Tree trunk -->
  <path d="M30 48 Q28 36 26 28 Q25 24 28 22" stroke="#8B5E3C" stroke-width="3" fill="none" stroke-linecap="round"/>
  <!-- Palm leaves -->
  <path d="M28 22 Q18 16 10 18" stroke="#4CAF50" stroke-width="2.5" fill="none" stroke-linecap="round"/>
  <path d="M28 22 Q22 12 14 10" stroke="#66BB6A" stroke-width="2.5" fill="none" stroke-linecap="round"/>
  <path d="M28 22 Q32 12 38 10" stroke="#66BB6A" stroke-width="2.5" fill="none" stroke-linecap="round"/>
  <path d="M28 22 Q36 16 44 18" stroke="#4CAF50" stroke-width="2.5" fill="none" stroke-linecap="round"/>
  <path d="M28 22 Q28 10 26 6" stroke="#81C784" stroke-width="2" fill="none" stroke-linecap="round"/>
  <!-- Water hint -->
  <path d="M8 54 Q16 52 24 54 Q32 56 40 54 Q48 52 56 54" stroke="#42A5F5" stroke-width="1.5" fill="none" opacity="0.6" stroke-linecap="round"/>
</svg>
